<svg xmlns="http://www.w3.org/2000/svg" xmlns:xlink="http://www.w3.org/1999/xlink" width="14.604" height="8.893" viewBox="0 0 14.604 8.893">
  <defs>
    <clipPath id="clip-path">
      <rect id="Rectangle_18671" data-name="Rectangle 18671" width="8.893" height="14.604" fill="#fff" stroke="rgba(0,0,0,0)" stroke-width="1"/>
    </clipPath>
  </defs>
  <g id="Group_17237" data-name="Group 17237" transform="translate(14.604) rotate(90)" opacity="0.708">
    <g id="Group_17107" data-name="Group 17107" clip-path="url(#clip-path)">
      <path id="Path_41464" data-name="Path 41464" d="M5.149,7.319c-.223-.2-.38-.336-.525-.48Q2.553,4.772.486,2.7A1.557,1.557,0,0,1,.461.467,1.569,1.569,0,0,1,2.7.471q2.86,2.846,5.707,5.705a1.545,1.545,0,0,1,0,2.256q-2.847,2.859-5.707,5.705a1.569,1.569,0,0,1-2.216.017,1.553,1.553,0,0,1-.01-2.234Q2.638,9.733,4.826,7.565a3.441,3.441,0,0,1,.324-.246" transform="translate(0 0)" fill="#fff" stroke="rgba(0,0,0,0)" stroke-width="1"/>
    </g>
  </g>
</svg>
